:version 1.10
:name ASF
:units
  mass 1
  length 1
  angle deg
:documentation
  ASF file generated by Kaydara
:root
  axis xyz
  order  tx ty tz rx ry rz
  position 0 0 0
  orientation 0 0 0
:bonedata
  begin
    id 1
    name RightUpLegDummy
    direction -1 2.30186e-007 8.31532e-007
    length 4.04083
    axis 0 0 0 xyz
  end
  begin
    id 2
    name RightUpLeg
    direction -0.000919234 -0.999985 0.00544864
    length 17.4221
    axis -3.80308 -0.00076134 -0.0523649 xyz
    dof rx ry rz
  end
  begin
    id 3
    name RightLeg
    direction -0.000919271 -0.999984 -0.00555045
    length 17.1239
    axis 4.00314 0.0181274 -0.183583 xyz
    dof rx ry rz
  end
  begin
    id 4
    name RightFoot
    direction -2.57843e-005 -4.04509e-007 1
    length 6.72091
    axis 8.18909e-005 -0.122003 -0.403008 xyz
    dof rx ry rz
  end
  begin
    id 5
    name RightToes
    direction 0.00116825 -0.014069 0.9999
    length 3.85082
    axis 0.000514414 0.540638 -0.356797 xyz
    dof rx ry rz
  end
  begin
    id 6
    name SpineDummy
    direction 0.0168869 0.966876 -0.254689
    length 6.99894
    axis 0 0 0 xyz
  end
  begin
    id 7
    name Spine
    direction -0.0132008 0.999903 0.00446247
    length 11.1999
    axis -0.00148109 0.00725429 0.756411 xyz
    dof rx ry rz
  end
  begin
    id 8
    name Spine1
    direction 0 0 0
    length 0
    axis -0.000934958 0.0245693 1.46543 xyz
    dof rx ry rz
  end
  begin
    id 9
    name HEadDummy
    direction -0.0255732 0.999672 0.00128215
    length 3.43865
    axis -0.000934958 0.0245693 1.46543 xyz
  end
  begin
    id 10
    name HEad
    direction -0.0472656 0.980052 0.19304
    length 5.12695
    axis -0.000934954 0.0245693 1.46543 xyz
    dof rx ry rz
  end
  begin
    id 11
    name LeftShoulder1Dummy
    direction 0.953098 0.301717 -0.023914
    length 3.68488
    axis -0.000934958 0.0245693 1.46543 xyz
  end
  begin
    id 12
    name LeftShoulder1
    direction 0.962466 0.271167 0.0112566
    length 3.13809
    axis -0.000934958 0.0245693 1.46543 xyz
    dof rx ry rz
  end
  begin
    id 13
    name LeftArm
    direction 0.999943 0.00455037 -0.00961766
    length 11.3419
    axis -23.1648 0.685459 1.22814 xyz
    dof rx ry rz
  end
  begin
    id 14
    name LeftForeArm
    direction 0.999332 0.0131969 0.0340885
    length 8.70632
    axis -9.90633 0.618216 0.0826942 xyz
    dof rx ry rz
  end
  begin
    id 15
    name LeftHand
    direction 0.994373 -0.0366703 0.0993905
    length 5.32135
    axis 0.00675269 0.680415 0.445699 xyz
    dof rx ry rz
  end
  begin
    id 16
    name RightShoulderDummy
    direction -0.967298 0.252589 -0.0230903
    length 3.68488
    axis -0.000934958 0.0245693 1.46543 xyz
  end
  begin
    id 17
    name RightShoulder
    direction -0.975062 0.221602 0.0120823
    length 3.13809
    axis 0.216257 0.0246515 1.45863 xyz
    dof rx ry rz
  end
  begin
    id 18
    name RightArm
    direction -0.99886 -0.00851186 -0.0469687
    length 10.3947
    axis -23.196 0.23503 -0.532632 xyz
    dof rx ry rz
  end
  begin
    id 19
    name RightForeArm
    direction -0.99909 0.00114866 0.0426317
    length 8.68355
    axis -9.91764 -0.134943 0.610517 xyz
    dof rx ry rz
  end
  begin
    id 20
    name RightHand
    direction -0.992888 -0.0489538 0.10852
    length 5.28593
    axis -0.00275396 -0.197403 0.246414 xyz
    dof rx ry rz
  end
  begin
    id 21
    name LeftUpLegDummy
    direction 1 -2.30186e-007 -8.31532e-007
    length 4.04083
    axis 0 0 0 xyz
  end
  begin
    id 22
    name LeftUpLeg
    direction -0.000920097 -1 2.79241e-006
    length 17.4221
    axis -3.48782 0.00143434 -0.0532288 xyz
    dof rx ry rz
  end
  begin
    id 23
    name LeftLeg
    direction -0.000920097 -1 2.7912e-006
    length 17.1239
    axis 3.68162 -0.00806512 -0.0529896 xyz
    dof rx ry rz
  end
  begin
    id 24
    name LeftFoot
    direction -2.57845e-005 -3.987e-007 1
    length 6.72091
    axis 3.02372e-005 -0.00147829 -0.214229 xyz
    dof rx ry rz
  end
  begin
    id 25
    name LeftToes
    direction 0.00813577 -0.00488255 0.999955
    length 3.85048
    axis 3.89895e-005 -0.0014783 -0.214229 xyz
    dof rx ry rz
  end
:hierarchy
  begin
    root RightUpLegDummy SpineDummy LeftUpLegDummy
    RightUpLegDummy RightUpLeg
    RightUpLeg RightLeg
    RightLeg RightFoot
    RightFoot RightToes
    SpineDummy Spine
    Spine Spine1
    Spine1 HEadDummy LeftShoulder1Dummy RightShoulderDummy
    HEadDummy HEad
    LeftShoulder1Dummy LeftShoulder1
    LeftShoulder1 LeftArm
    LeftArm LeftForeArm
    LeftForeArm LeftHand
    RightShoulderDummy RightShoulder
    RightShoulder RightArm
    RightArm RightForeArm
    RightForeArm RightHand
    LeftUpLegDummy LeftUpLeg
    LeftUpLeg LeftLeg
    LeftLeg LeftFoot
    LeftFoot LeftToes
  end

:SAMPLES-PER-SECOND 30
:FULLY-SPECIFIED
:DEGREES
16
root  -17.6442 34.5575 -15.2583 -170.551 -0.300003 179.209
RightUpLeg  -6.62385 -16.931 -2.78794
RightLeg  4.68848 -1.79711 -0.0323543
RightFoot  3.9582 0.0264729 0.0257922
RightToes  -25.5848 -0.120729 -0.224764
Spine  -2.80063 -0.131007 -0.169899
Spine1  -5.66122 -0.230982 0.260975
HEad  -63.8634 -3.66643 4.14068
LeftShoulder1  -1.94126e-019 -3.10601e-018 -2.51263e-017
LeftArm  -14.8634 28.245 -80.5123
LeftForeArm  31.4924 -18.1994 -2.87641
LeftHand  -0.414219 -1.1925 7.45353
RightShoulder  -4.96962e-017 0 -2.36833e-017
RightArm  -28.1296 -26.6235 75.4526
RightForeArm  53.6823 15.8297 1.1053
RightHand  -0.270557 -3.08612 -13.1586
LeftUpLeg  -6.38809 1.47661 2.4805
LeftLeg  4.85487 12.3045 0.24935
LeftFoot  4.49818 -0.0386471 1.09271
LeftToes  -21.8156 1.7763e-006 6.54387e-008
17
root  -17.6347 34.5597 -15.2608 -170.57 -0.263763 179.227
RightUpLeg  -6.57788 -16.9293 -2.75917
RightLeg  4.62713 -1.76907 -0.0280586
RightFoot  3.97668 0.0264449 0.0261912
RightToes  -25.4903 -0.120729 -0.224764
Spine  -2.81464 -0.121815 -0.198843
Spine1  -5.68986 -0.212256 0.201391
HEad  -63.6688 -3.85585 4.32679
LeftShoulder1  -1.94126e-019 -3.10601e-018 -2.51263e-017
LeftArm  -14.9007 28.1325 -80.4326
LeftForeArm  31.44 -18.1329 -2.88026
LeftHand  -0.40971 -1.12376 7.67913
RightShoulder  -4.96962e-017 0 -2.36833e-017
RightArm  -28.0987 -26.5337 75.4213
RightForeArm  53.7851 15.782 1.1053
RightHand  -0.270086 -3.08107 -13.1059
LeftUpLeg  -6.33957 1.49537 2.51041
LeftLeg  4.81759 12.3216 0.241738
LeftFoot  4.51186 -0.0389276 1.09707
LeftToes  -21.7932 1.7763e-006 6.54387e-008
18
root  -17.6265 34.5632 -15.2621 -170.595 -0.218262 179.251
RightUpLeg  -6.51062 -16.8676 -2.73267
RightLeg  4.53144 -1.77889 -0.0252596
RightFoot  4.05193 0.0264402 0.0262585
RightToes  -25.5774 -0.120729 -0.224764
Spine  -2.80847 -0.111975 -0.228205
Spine1  -5.67823 -0.19054 0.143433
HEad  -63.5824 -4.04613 4.5571
LeftShoulder1  -1.94126e-019 -3.10601e-018 -2.51263e-017
LeftArm  -14.9494 27.9716 -80.3293
LeftForeArm  31.6586 -18.051 -2.87522
LeftHand  -0.417076 -1.24652 7.50157
RightShoulder  -4.96962e-017 0 -2.36833e-017
RightArm  -27.3667 -26.462 75.4208
RightForeArm  53.3628 15.9412 1.10866
RightHand  -0.254969 -3.19842 -12.9827
LeftUpLeg  -6.2726 1.54094 2.54181
LeftLeg  4.7465 12.3319 0.226761
LeftFoot  4.5645 -0.0397767 1.11027
LeftToes  -21.8875 1.7763e-006 6.54387e-008
19
root  -17.6185 34.572 -15.2624 -170.634 -0.166733 179.266
RightUpLeg  -6.37769 -16.8705 -2.72059
RightLeg  4.32251 -1.71706 -0.0181153
RightFoot  4.14454 0.0264646 0.0259109
RightToes  -25.5221 -0.120729 -0.224764
Spine  -2.7979 -0.101815 -0.261591
Spine1  -5.65695 -0.166495 0.0854351
HEad  -63.5751 -4.22424 4.73835
LeftShoulder1  -1.94126e-019 -3.10601e-018 -2.51263e-017
LeftArm  -14.835 27.7734 -80.2943
LeftForeArm  31.671 -17.9401 -2.86318
LeftHand  -0.417119 -1.17419 7.52424
RightShoulder  -4.96962e-017 0 -2.36833e-017
RightArm  -26.1526 -26.3977 75.4844
RightForeArm  52.8013 16.2966 1.11743
RightHand  -0.253111 -3.14802 -12.595
LeftUpLeg  -6.13228 1.57021 2.56397
LeftLeg  4.55743 12.3598 0.186811
LeftFoot  4.65457 -0.041375 1.13511
LeftToes  -21.8591 1.7763e-006 6.54387e-008
20
root  -17.6091 34.5856 -15.2594 -170.678 -0.0717468 179.286
RightUpLeg  -6.21263 -16.8169 -2.69947
RightLeg  4.035 -1.68007 -0.00931485
RightFoot  4.29864 0.0265237 0.0250658
RightToes  -25.4663 -0.120729 -0.224764
Spine  -2.78822 -0.0808667 -0.305584
Spine1  -5.6367 -0.119481 0.0125644
HEad  -63.5138 -4.44549 4.8633
LeftShoulder1  -1.94126e-019 -3.10601e-018 -2.51263e-017
LeftArm  -14.5096 27.5317 -80.2589
LeftForeArm  31.7314 -17.7514 -2.84153
LeftHand  -0.416611 -1.2519 7.43354
RightShoulder  -4.96962e-017 0 -2.36833e-017
RightArm  -24.0236 -26.3989 75.6203
RightForeArm  52.0973 16.9887 1.17671
RightHand  -0.242481 -3.17598 -12.1817
LeftUpLeg  -5.93812 1.65945 2.58981
LeftLeg  4.26089 12.3675 0.123445
LeftFoot  4.82375 -0.0441005 1.17748
LeftToes  -21.8893 1.7763e-006 6.54387e-008
21
root  -17.5967 34.6093 -15.2553 -170.711 0.049469 179.301
RightUpLeg  -5.93196 -16.7082 -2.67541
RightLeg  3.4721 -1.66713 0.00705546
RightFoot  4.57869 0.0266235 0.02364
RightToes  -25.374 -0.120729 -0.224764
Spine  -2.78119 -0.0664856 -0.355702
Spine1  -5.61914 -0.0853369 -0.0590252
HEad  -63.463 -4.61744 5.04705
LeftShoulder1  -1.94126e-019 -3.10601e-018 -2.51263e-017
LeftArm  -13.5157 27.292 -80.1798
LeftForeArm  30.8585 -17.8189 -2.85157
LeftHand  -0.377557 -1.05602 6.93811
RightShoulder  -4.96962e-017 0 -2.36833e-017
RightArm  -21.3206 -26.5696 75.7744
RightForeArm  50.9298 18.3872 1.46151
RightHand  -0.229284 -3.18849 -11.5365
LeftUpLeg  -5.64797 1.87568 2.61326
LeftLeg  3.73838 12.261 0.0114965
LeftFoot  5.10165 -0.0478735 1.23613
LeftToes  -21.8412 1.7763e-006 6.54387e-008
22
root  -17.5882 34.6511 -15.2331 -170.699 0.192841 179.327
RightUpLeg  -5.549 -16.6414 -2.625
RightLeg  2.53418 -1.57925 0.0324072
RightFoot  5.09291 0.0268848 0.0199056
RightToes  -25.3598 -0.120729 -0.224764
Spine  -2.74008 -0.0825535 -0.422925
Spine1  -5.52832 -0.118943 -0.146646
HEad  -63.5328 -4.7393 5.31211
LeftShoulder1  -1.94126e-019 -3.10601e-018 -2.51263e-017
LeftArm  -11.7187 27.414 -79.7611
LeftForeArm  28.6431 -19.7995 -3.08523
LeftHand  -0.341386 -1.29705 6.07766
RightShoulder  -4.96962e-017 0 -2.36833e-017
RightArm  -16.3222 -27.0469 75.4187
RightForeArm  46.8085 22.3455 2.37473
RightHand  -0.166491 -3.49304 -9.40158
LeftUpLeg  -5.22007 1.90883 2.63154
LeftLeg  2.79182 12.3881 -0.191331
LeftFoot  5.59641 -0.0590018 1.36866
LeftToes  -21.7967 1.7763e-006 6.54387e-008
23
root  -17.5722 34.6684 -15.1984 -170.634 0.421204 179.342
RightUpLeg  -5.48438 -16.3746 -2.55993
RightLeg  2.07004 -1.62312 0.0463488
RightFoot  5.37504 0.0276066 0.009591
RightToes  -25.4174 -0.120729 -0.224764
Spine  -2.63358 -0.0801468 -0.453675
Spine1  -5.32045 -0.100709 -0.204861
HEad  -63.9602 -4.71599 5.64348
LeftShoulder1  -1.94126e-019 -3.10601e-018 -2.51263e-017
LeftArm  -8.60099 28.908 -78.3991
LeftForeArm  23.731 -28.2048 -4.75781
LeftHand  -0.339521 -0.474052 6.8183
RightShoulder  -4.96962e-017 0 -2.36833e-017
RightArm  -10.41 -28.8869 73.6343
RightForeArm  42.5759 34.4416 5.19392
RightHand  -0.12177 -2.91991 -5.12048
LeftUpLeg  -5.09944 2.10791 2.63733
LeftLeg  2.35992 12.4418 -0.285171
LeftFoot  5.8367 -0.0672254 1.43112
LeftToes  -21.7597 1.7763e-006 6.54387e-008
24
root  -17.5522 34.6998 -15.1537 -170.573 0.724289 179.389
RightUpLeg  -5.31199 -16.3952 -2.45461
RightLeg  1.31947 -1.29315 0.0538135
RightFoot  5.86071 0.0263433 0.0276434
RightToes  -25.6011 -0.120729 -0.224764
Spine  -2.49621 -0.0536272 -0.483033
Spine1  -5.04188 -0.0289631 -0.2622
HEad  -64.9056 -4.60917 6.11001
LeftShoulder1  -1.94126e-019 -3.10601e-018 -2.51263e-017
LeftArm  -5.40776 31.4817 -75.671
LeftForeArm  20.1453 -43.7523 -9.32427
LeftHand  -0.376549 0.577892 9.09918
RightShoulder  -4.96962e-017 0 -2.36833e-017
RightArm  -3.7719 -30.8194 70.2109
RightForeArm  43.7682 51.3472 10.5535
RightHand  -0.123619 -1.90019 -3.83042
LeftUpLeg  -4.81574 2.3747 2.67908
LeftLeg  1.58927 12.481 -0.452641
LeftFoot  6.23565 -0.0781781 1.52892
LeftToes  -21.7977 1.7763e-006 6.54387e-008
25
root  -17.535 34.7452 -15.0892 -170.57 1.00737 179.412
RightUpLeg  -4.954 -16.4418 -2.39605
RightLeg  0.211447 -1.05574 0.0641668
RightFoot  6.80799 0.02613 0.0306921
RightToes  -26.7728 -0.120729 -0.224764
Spine  -2.44988 0.0101575 -0.551338
Spine1  -4.92166 0.103045 -0.381832
HEad  -65.8876 -4.80643 6.69888
LeftShoulder1  -1.94126e-019 -3.10601e-018 -2.51263e-017
LeftArm  -2.26534 33.2085 -72.0578
LeftForeArm  25.7044 -62.78 -19.8215
LeftHand  -0.300768 1.17553 8.22098
RightShoulder  -4.96962e-017 0 -2.36833e-017
RightArm  1.09649 -31.7644 66.0561
RightForeArm  54.0002 69.2047 23.7309
RightHand  -0.163343 -1.23993 -4.43201
LeftUpLeg  -4.33232 2.40428 2.69527
LeftLeg  0.455456 12.7214 -0.711254
LeftFoot  6.86265 -0.0926045 1.70591
LeftToes  -21.925 1.7763e-006 6.54387e-008
26
root  -17.5105 34.7838 -15.0084 -170.619 1.32033 179.388
RightUpLeg  -4.84832 -16.1116 -2.36308
RightLeg  -0.285844 -1.09125 0.0756841
RightFoot  7.13901 0.0271333 0.0163543
RightToes  -26.5 -0.120729 -0.224764
Spine  -2.51176 0.196004 -0.649072
Spine1  -4.96162 0.470829 -0.574397
HEad  -65.9323 -5.59997 7.16635
LeftShoulder1  -1.94126e-019 -3.10601e-018 -2.51263e-017
LeftArm  -0.658627 31.7524 -69.1259
LeftForeArm  61.6899 -78.4343 -60.6745
LeftHand  -0.379575 0.486254 9.00982
RightShoulder  -4.96962e-017 0 -2.36833e-017
RightArm  1.73855 -30.7585 63.2413
RightForeArm  104.809 80.8943 79.84
RightHand  -0.170773 -1.74011 -5.20743
LeftUpLeg  -4.10183 2.38583 2.68202
LeftLeg  -0.0972579 13.0138 -0.852149
LeftFoot  7.27039 -0.10233 1.84439
LeftToes  -21.8191 1.7763e-006 6.54387e-008
27
root  -17.5016 34.8076 -14.8833 -170.82 1.08049 179.385
RightUpLeg  -4.89047 -16.2193 -2.338
RightLeg  -0.132272 -1.20168 0.080165
RightFoot  7.259 0.0283179 -0.00057341
RightToes  -26.5378 -0.120729 -0.224764
Spine  -2.683 0.403495 -0.798258
Spine1  -5.17826 0.953016 -0.889755
HEad  -64.7367 -6.85031 7.57267
LeftShoulder1  -1.94126e-019 -3.10601e-018 -2.51263e-017
LeftArm  -1.70519 25.8123 -69.0603
LeftForeArm  133.564 -75.5203 -135.498
LeftHand  -0.424664 0.254029 9.64773
RightShoulder  -4.96962e-017 0 -2.36833e-017
RightArm  -1.58478 -27.2414 63.2474
RightForeArm  163.437 74.8319 143.5
RightHand  -0.196655 -2.86856 -8.56217
LeftUpLeg  -4.44125 1.64959 2.71986
LeftLeg  0.518311 13.5034 -0.739467
LeftFoot  7.2209 -0.105772 1.90522
LeftToes  -21.8657 1.7763e-006 6.54387e-008
28
root  -17.4971 34.8308 -14.7492 -171.199 0.946335 179.335
RightUpLeg  -4.83457 -16.0484 -2.42106
RightLeg  0.132762 -1.48643 0.0923517
RightFoot  7.33471 0.030824 -0.0363862
RightToes  -26.3837 -0.120729 -0.224764
Spine  -2.91207 0.577922 -0.987873
Spine1  -5.48553 1.38266 -1.24641
HEad  -62.4511 -7.79237 7.46273
LeftShoulder1  -1.94126e-019 -3.10601e-018 -2.51263e-017
LeftArm  -3.1229 16.3704 -71.5987
LeftForeArm  153.099 -66.9155 -154.853
LeftHand  -0.558417 0.33484 12.8717
RightShoulder  -4.96962e-017 0 -2.36833e-017
RightArm  -6.47835 -20.4349 66.6056
RightForeArm  177.457 66.6933 158.074
RightHand  -0.150434 -4.26756 -14.2539
LeftUpLeg  -4.86305 1.14365 2.69461
LeftLeg  1.66565 13.8472 -0.482951
LeftFoot  6.94767 -0.103496 1.89367
LeftToes  -21.5777 1.7763e-006 6.54387e-008
